<svg width="120" height="120" viewBox="0 0 120 120" xmlns="http://www.w3.org/2000/svg">
  <defs>
    <linearGradient id="grad" x1="0" x2="1" y1="0" y2="1">
      <stop offset="0%" stop-color="#5b1a2e" />
      <stop offset="100%" stop-color="#8c2f45" />
    </linearGradient>
  </defs>
  <rect x="8" y="18" width="104" height="84" rx="10" fill="url(#grad)" />
  <path d="M30 36h24c6 0 10 3 12 6 2-3 6-6 12-6h24v48h-24c-6 0-10-3-12-6-2 3-6 6-12 6H30z" fill="#f6ede6" opacity="0.95" />
  <path d="M40 44h14" stroke="#5b1a2e" stroke-width="4" stroke-linecap="round" />
  <path d="M40 56h14" stroke="#5b1a2e" stroke-width="4" stroke-linecap="round" />
  <path d="M40 68h14" stroke="#5b1a2e" stroke-width="4" stroke-linecap="round" />
  <circle cx="80" cy="60" r="10" fill="#5b1a2e" opacity="0.85" />
  <path d="M76 58l4 4 8-8" stroke="#f6ede6" stroke-width="3" stroke-linecap="round" stroke-linejoin="round" />
</svg>
