<svg width="200" height="64" viewBox="0 0 200 64" xmlns="http://www.w3.org/2000/svg" role="img" aria-labelledby="title desc">
  <title id="title">Солов'їна — українська книгарня</title>
  <desc id="desc">Логотип з пташкою та стилізованою назвою</desc>
  <defs>
    <linearGradient id="grad" x1="0%" x2="100%" y1="0%" y2="100%">
      <stop offset="0%" stop-color="#641d2f" />
      <stop offset="100%" stop-color="#8f2d41" />
    </linearGradient>
  </defs>
  <rect x="2" y="12" width="196" height="40" rx="18" fill="#fbf1ec" />
  <path d="M28 8c6 4 10 8 14 12-4 3-7 6-10 9 4-1 8-2 12-2 6 0 12 1 18 3 10-7 21-13 35-13 18 0 32 9 40 21 4-2 8-3 12-3-2 5-5 10-9 13 3 4 5 8 6 12-8-3-16-6-24-6-11 0-22 5-33 12-8-4-15-11-20-19-7 3-15 5-23 5-8 0-17-2-26-6-4 3-9 6-14 7 4-5 7-11 8-17-6-6-9-13-9-20 5 2 10 4 14 4 1-4 3-7 7-12z" fill="url(#grad)" opacity="0.22" />
  <path d="M46 28c1-5 3-9 7-11 4-2 10-2 16 0l-1 5c-4-1-7-1-10 0-3 1-4 3-5 6-1 4 0 7 2 9 3 2 7 2 13 0l1 5c-7 2-13 2-17-1-4-2-7-8-6-13zm45-11h7l-5 25h-7l5-25zm15 0h7l-5 25h-7l5-25zm22-1c7 0 11 3 13 6 2 4 2 9 1 13-1 5-5 9-11 10-7 1-11-3-13-6-2-4-2-9-1-13 1-5 5-9 11-10zm-2 6c-3 0-5 2-6 5-1 3-1 6 0 9 1 3 3 4 6 4 3 0 5-2 6-5 1-3 1-6 0-9-1-3-3-4-6-4zm37-5c5 0 9 2 12 6l-5 4c-2-3-4-4-7-4-5 0-8 3-9 8-1 3 0 6 1 8 2 2 4 4 8 3 3 0 6-2 8-4l4 4c-3 4-8 6-14 6-5 0-10-2-13-6-3-4-3-10-2-14 1-5 4-9 9-11 3-1 5-2 8-2z" fill="#631c30" />
  <g transform="translate(148 6)">
    <path d="M22 6c3-2 6-3 9-3 5 0 9 2 12 5l-4 2c-2-2-4-3-7-3-2 0-5 1-7 3 0 3 2 6 5 8l-2 3c-4-3-6-7-6-11 0-1 0-2 0-4z" fill="#8f2d41" />
    <path d="M36 16c1 3 1 5 1 7 0 3-1 6-3 8-3 3-7 4-12 3l1-4c3 1 6 1 8-1 1-1 2-3 2-6-3-1-5-2-7-4l1-3c2 2 4 3 7 4 0-1 0-2-1-4l3-1z" fill="#641d2f" />
    <circle cx="40" cy="5" r="3" fill="#a23b50" />
  </g>
</svg>
